<?xml version="1.0" encoding="UTF-8"?>
<svg version="1.0" viewBox="0 0 239.85 253.92" xmlns="http://www.w3.org/2000/svg">
 <g transform="translate(-363.65 -289.69)">
  <g transform="matrix(9.227 0 0 9.6832 451.45 459.75)">
   <path d="m-6.0519 0.40073l-2.8916 7.7711 7.8338-2.9376 1.6842-2.0022-5-4.4578-1.6265 1.6265z" fill="#dab881" fill-opacity=".99608" fill-rule="evenodd" stroke="#000" stroke-linecap="round" stroke-linejoin="round" stroke-width="1px"/>
   <path d="m-7.485 6.6462l5.1117-4.2832c0.55236 0.6413 0.89408 1.395 1.0954 2.2469l-0.098302 0.16852-5.9683 2.275-0.14043-0.40725z" fill="#c4a676" fill-opacity=".99608" fill-rule="evenodd"/>
   <path d="m-5.5699-0.081198l12.952-12.831c2.477 0.2224 5.7553 2.1617 4.7031 5.083l-12.836 12.507c-0.56225-2.7108-2.4498-4.0964-4.8193-4.759z" fill="#797979" fill-opacity=".99608" fill-rule="evenodd" stroke="#000" stroke-linecap="round" stroke-linejoin="round" stroke-width="1px"/>
   <path d="m7.5023-13.033l2.3494-2.4096c2.0797 1.2604 3.5722 3.3365 4.6831 5.0813l-2.3438 2.3818c-0.58849-2.8029-2.5778-4.4651-4.6887-5.0535z" fill="#d4d5d5" fill-opacity=".99608" fill-rule="evenodd" stroke="#000" stroke-linecap="round" stroke-linejoin="round" stroke-width="1px"/>
   <path d="m9.4301-14.9c2.2271 0.32064 4.5442 2.7697 4.9721 4.682 0 0 1.5486-1.8967 1.5633-2.4849 0.049418-1.9802-2.2699-4.4114-4.2502-4.3707-0.53721 0.01105-2.2852 2.1736-2.2852 2.1736z" fill="#ee8e8b" fill-rule="evenodd" stroke="#000" stroke-linecap="round" stroke-linejoin="round" stroke-width="1px"/>
   <path d="m-9.0037 7.9308l1.4893-1.0701" fill="none" stroke="#000" stroke-linecap="round" stroke-linejoin="round" stroke-width="1px"/>
   <path d="m-1.7837 1.5031c0.30899 0.11236 0.91291 1.3623 0.91291 1.3623l0.42134 0.98314 11.741-11.545 0.36516-0.44943s-0.23249-0.88498-0.36516-1.1798-0.53311-0.73092-0.53311-0.73092l-12.543 11.559z" fill="#807575" fill-rule="evenodd"/>
   <path d="m11.696-10.528l0.47657 0.85386 0.25814 0.77443 1.4496-1.5091-0.31771-0.51629-0.63543-0.89357-1.2311 1.2907z" fill="#c6c8c8" fill-opacity=".99608" fill-rule="evenodd"/>
   <path d="m13.662-12.772l0.49643 0.73472 0.417 0.79429 0.85386-1.3106c0.11914-0.46333-0.15886-1.3635-0.47657-1.7673l-1.2907 1.5489z" fill="#ed7f7b" fill-rule="evenodd"/>
  </g>
 </g>
</svg>
