<?xml version="1.0" encoding="UTF-8"?>
<svg viewBox="0 0 235.49 199.07" xmlns="http://www.w3.org/2000/svg">
 <g stroke-linecap="round">
  <g stroke="#000">
   <g fill="#fff">
    <g stroke-width="4.093">
     <path d="m35.982 60.399l121.38-58.352 74.531 28.724-107.37 84.507-88.544-54.879z"/>
     <path d="m33.875 63.404l-0.7649 74.212 89.013 49.298 1.5152-72.912-89.763-50.599z"/>
     <path d="m125.6 185.66l106.7-89.623 1.1493-62.018-109.8 83.195c-0.40199 22.651 1.0481 43.859 1.9504 68.446z"/>
    </g>
    <path d="m115.69 176.34l-26.908 19.424c-6.5136 1.6386-14.542 1.9504-21.056-0.2736l-56.585-29.776c-7.9554-2.6274-7.796-6.7863-8.6991-13.312l-0.4441-47.876c2.362-8.7241 9.0805-13.134 15.988-16.204l21.762-11.048 75.055 42.352 0.8882 56.715z" stroke-width="4.004"/>
   </g>
   <g fill="#bfbfbf">
    <path d="m65.81 48.079l87.143 46.428 57.857-44.286-79.286-35.714-65.714 33.572z" stroke-width="5"/>
    <path d="m152.21 96.248v66.861l55.772-45.271 2.1451-64.075" stroke-width="4.94"/>
   </g>
  </g>
  <g fill="#f2f2f2" stroke-width="5">
   <path d="m73.06 192.55v-57.579l6.566 1.0102-1.5152 56.568h-5.0508z"/>
   <path d="m74.967 139.47l-69.614-33.15 8.1742-9.2322 65.966 34.783-4.5256 7.5995z"/>
   <path d="m111.23 121.09l-31.536 19.2-1.8884-7.4161 31.547-14.121 1.8782 2.3375z"/>
  </g>
 </g>
</svg>
