<?xml version="1.0" encoding="UTF-8"?>
<svg viewBox="0 0 60 60" xmlns="http://www.w3.org/2000/svg">
 <path d="m2.3438 2.5938v13.281l9.4062 9.5938-1 1.6875 5.7812 1.9688 1.4375-1.1562s13.19 14.75 15.531 17.094c3.3138 0.63038 21.25 12.531 21.25 12.531l0.9375-0.9375-18.344-18.5c-1.4367 0.96288-3.3696 0.71921-4.4688-0.65625-1.159-1.4504-0.95037-3.5598 0.5-4.7188s3.591-0.95037 4.75 0.5c0.88334 1.1054 0.93879 2.5892 0.28125 3.75l18.375 18.531 0.75-0.71875c-0.42407-0.32347-11.878-17.475-13.375-22.344-7.6536-6.0612-17.219-14.969-17.219-14.969l1.7188-1.375-2.9375-5.0312-1.8125 0.875-9.2812-9.4062h-12.281z" fill="#333" fill-rule="evenodd" stroke="#333" stroke-linecap="round" stroke-linejoin="round" stroke-width=".41917"/>
</svg>
